<svg id="visual" viewBox="0 0 960 540" width="960" height="540" xmlns="http://www.w3.org/2000/svg" xmlns:xlink="http://www.w3.org/1999/xlink" version="1.1"><path d="M0 23L10.7 25.7C21.3 28.3 42.7 33.7 64 39C85.3 44.3 106.7 49.7 128 47C149.3 44.3 170.7 33.7 192 29.2C213.3 24.7 234.7 26.3 256 29C277.3 31.7 298.7 35.3 320 39C341.3 42.7 362.7 46.3 384 43.7C405.3 41 426.7 32 448 26.5C469.3 21 490.7 19 512 24.3C533.3 29.7 554.7 42.3 576 43.3C597.3 44.3 618.7 33.7 640 31C661.3 28.3 682.7 33.7 704 37.2C725.3 40.7 746.7 42.3 768 39.7C789.3 37 810.7 30 832 29.2C853.3 28.3 874.7 33.7 896 36.3C917.3 39 938.7 39 949.3 39L960 39L960 0L949.3 0C938.7 0 917.3 0 896 0C874.7 0 853.3 0 832 0C810.7 0 789.3 0 768 0C746.7 0 725.3 0 704 0C682.7 0 661.3 0 640 0C618.7 0 597.3 0 576 0C554.7 0 533.3 0 512 0C490.7 0 469.3 0 448 0C426.7 0 405.3 0 384 0C362.7 0 341.3 0 320 0C298.7 0 277.3 0 256 0C234.7 0 213.3 0 192 0C170.7 0 149.3 0 128 0C106.7 0 85.3 0 64 0C42.7 0 21.3 0 10.7 0L0 0Z" fill="#b900ff"></path><path d="M0 71L10.7 72.8C21.3 74.7 42.7 78.3 64 85.5C85.3 92.7 106.7 103.3 128 99.7C149.3 96 170.7 78 192 69C213.3 60 234.7 60 256 66.3C277.3 72.7 298.7 85.3 320 95.3C341.3 105.3 362.7 112.7 384 105.5C405.3 98.3 426.7 76.7 448 64C469.3 51.3 490.7 47.7 512 54.8C533.3 62 554.7 80 576 84.5C597.3 89 618.7 80 640 78.2C661.3 76.3 682.7 81.7 704 84.3C725.3 87 746.7 87 768 88.8C789.3 90.7 810.7 94.3 832 91.7C853.3 89 874.7 80 896 74.7C917.3 69.3 938.7 67.7 949.3 66.8L960 66L960 37L949.3 37C938.7 37 917.3 37 896 34.3C874.7 31.7 853.3 26.3 832 27.2C810.7 28 789.3 35 768 37.7C746.7 40.3 725.3 38.7 704 35.2C682.7 31.7 661.3 26.3 640 29C618.7 31.7 597.3 42.3 576 41.3C554.7 40.3 533.3 27.7 512 22.3C490.7 17 469.3 19 448 24.5C426.7 30 405.3 39 384 41.7C362.7 44.3 341.3 40.7 320 37C298.7 33.3 277.3 29.7 256 27C234.7 24.3 213.3 22.7 192 27.2C170.7 31.7 149.3 42.3 128 45C106.7 47.7 85.3 42.3 64 37C42.7 31.7 21.3 26.3 10.7 23.7L0 21Z" fill="#a123f7"></path><path d="M0 120L10.7 123.5C21.3 127 42.7 134 64 143C85.3 152 106.7 163 128 157.7C149.3 152.3 170.7 130.7 192 119.8C213.3 109 234.7 109 256 117.2C277.3 125.3 298.7 141.7 320 155.2C341.3 168.7 362.7 179.3 384 169.3C405.3 159.3 426.7 128.7 448 109.8C469.3 91 490.7 84 512 93C533.3 102 554.7 127 576 134.2C597.3 141.3 618.7 130.7 640 132.5C661.3 134.3 682.7 148.7 704 147.7C725.3 146.7 746.7 130.3 768 125.8C789.3 121.3 810.7 128.7 832 131.5C853.3 134.3 874.7 132.7 896 130.8C917.3 129 938.7 127 949.3 126L960 125L960 64L949.3 64.8C938.7 65.7 917.3 67.3 896 72.7C874.7 78 853.3 87 832 89.7C810.7 92.3 789.3 88.7 768 86.8C746.7 85 725.3 85 704 82.3C682.7 79.7 661.3 74.3 640 76.2C618.7 78 597.3 87 576 82.5C554.7 78 533.3 60 512 52.8C490.7 45.7 469.3 49.3 448 62C426.7 74.7 405.3 96.3 384 103.5C362.7 110.7 341.3 103.3 320 93.3C298.7 83.3 277.3 70.7 256 64.3C234.7 58 213.3 58 192 67C170.7 76 149.3 94 128 97.7C106.7 101.3 85.3 90.7 64 83.5C42.7 76.3 21.3 72.7 10.7 70.8L0 69Z" fill="#8a30ee"></path><path d="M0 158L10.7 158.8C21.3 159.7 42.7 161.3 64 167.5C85.3 173.7 106.7 184.3 128 182.5C149.3 180.7 170.7 166.3 192 159.2C213.3 152 234.7 152 256 161C277.3 170 298.7 188 320 198C341.3 208 362.7 210 384 200.2C405.3 190.3 426.7 168.7 448 152.3C469.3 136 490.7 125 512 130.3C533.3 135.7 554.7 157.3 576 161C597.3 164.7 618.7 150.3 640 153C661.3 155.7 682.7 175.3 704 179.8C725.3 184.3 746.7 173.7 768 171C789.3 168.3 810.7 173.7 832 173.7C853.3 173.7 874.7 168.3 896 167.5C917.3 166.7 938.7 170.3 949.3 172.2L960 174L960 123L949.3 124C938.7 125 917.3 127 896 128.8C874.7 130.7 853.3 132.3 832 129.5C810.7 126.7 789.3 119.3 768 123.8C746.7 128.3 725.3 144.7 704 145.7C682.7 146.7 661.3 132.3 640 130.5C618.7 128.7 597.3 139.3 576 132.2C554.7 125 533.3 100 512 91C490.7 82 469.3 89 448 107.8C426.7 126.7 405.3 157.3 384 167.3C362.7 177.3 341.3 166.7 320 153.2C298.7 139.7 277.3 123.3 256 115.2C234.7 107 213.3 107 192 117.8C170.7 128.7 149.3 150.3 128 155.7C106.7 161 85.3 150 64 141C42.7 132 21.3 125 10.7 121.5L0 118Z" fill="#7237e4"></path><path d="M0 195L10.7 199.5C21.3 204 42.7 213 64 228.3C85.3 243.7 106.7 265.3 128 264.5C149.3 263.7 170.7 240.3 192 237.7C213.3 235 234.7 253 256 262.8C277.3 272.7 298.7 274.3 320 278.8C341.3 283.3 362.7 290.7 384 284.5C405.3 278.3 426.7 258.7 448 248.8C469.3 239 490.7 239 512 237.2C533.3 235.3 554.7 231.7 576 232.5C597.3 233.3 618.7 238.7 640 250.3C661.3 262 682.7 280 704 281.8C725.3 283.7 746.7 269.3 768 262.2C789.3 255 810.7 255 832 257.7C853.3 260.3 874.7 265.7 896 262C917.3 258.3 938.7 245.7 949.3 239.3L960 233L960 172L949.3 170.2C938.7 168.3 917.3 164.7 896 165.5C874.7 166.3 853.3 171.7 832 171.7C810.7 171.7 789.3 166.3 768 169C746.7 171.7 725.3 182.3 704 177.8C682.7 173.3 661.3 153.7 640 151C618.7 148.3 597.3 162.7 576 159C554.7 155.3 533.3 133.7 512 128.3C490.7 123 469.3 134 448 150.3C426.7 166.7 405.3 188.3 384 198.2C362.7 208 341.3 206 320 196C298.7 186 277.3 168 256 159C234.7 150 213.3 150 192 157.2C170.7 164.3 149.3 178.7 128 180.5C106.7 182.3 85.3 171.7 64 165.5C42.7 159.3 21.3 157.7 10.7 156.8L0 156Z" fill="#5b3bd9"></path><path d="M0 401L10.7 398.2C21.3 395.3 42.7 389.7 64 386.8C85.3 384 106.7 384 128 373.3C149.3 362.7 170.7 341.3 192 337.8C213.3 334.3 234.7 348.7 256 351.3C277.3 354 298.7 345 320 351.3C341.3 357.7 362.7 379.3 384 375.7C405.3 372 426.7 343 448 333C469.3 323 490.7 332 512 342C533.3 352 554.7 363 576 359.5C597.3 356 618.7 338 640 339.7C661.3 341.3 682.7 362.7 704 374.3C725.3 386 746.7 388 768 394.3C789.3 400.7 810.7 411.3 832 415.8C853.3 420.3 874.7 418.7 896 405.2C917.3 391.7 938.7 366.3 949.3 353.7L960 341L960 231L949.3 237.3C938.7 243.7 917.3 256.3 896 260C874.7 263.7 853.3 258.3 832 255.7C810.7 253 789.3 253 768 260.2C746.7 267.3 725.3 281.7 704 279.8C682.7 278 661.3 260 640 248.3C618.7 236.7 597.3 231.3 576 230.5C554.7 229.7 533.3 233.3 512 235.2C490.7 237 469.3 237 448 246.8C426.7 256.7 405.3 276.3 384 282.5C362.7 288.7 341.3 281.3 320 276.8C298.7 272.3 277.3 270.7 256 260.8C234.7 251 213.3 233 192 235.7C170.7 238.3 149.3 261.7 128 262.5C106.7 263.3 85.3 241.7 64 226.3C42.7 211 21.3 202 10.7 197.5L0 193Z" fill="#443dce"></path><path d="M0 498L10.7 499.8C21.3 501.7 42.7 505.3 64 508C85.3 510.7 106.7 512.3 128 508.7C149.3 505 170.7 496 192 495.2C213.3 494.3 234.7 501.7 256 500.8C277.3 500 298.7 491 320 488.2C341.3 485.3 362.7 488.7 384 488.7C405.3 488.7 426.7 485.3 448 487.2C469.3 489 490.7 496 512 497.7C533.3 499.3 554.7 495.7 576 492.2C597.3 488.7 618.7 485.3 640 488.2C661.3 491 682.7 500 704 501.7C725.3 503.3 746.7 497.7 768 495.8C789.3 494 810.7 496 832 498.8C853.3 501.7 874.7 505.3 896 503.5C917.3 501.7 938.7 494.3 949.3 490.7L960 487L960 339L949.3 351.7C938.7 364.3 917.3 389.7 896 403.2C874.7 416.7 853.3 418.3 832 413.8C810.7 409.3 789.3 398.7 768 392.3C746.7 386 725.3 384 704 372.3C682.7 360.7 661.3 339.3 640 337.7C618.7 336 597.3 354 576 357.5C554.7 361 533.3 350 512 340C490.7 330 469.3 321 448 331C426.7 341 405.3 370 384 373.7C362.7 377.3 341.3 355.7 320 349.3C298.7 343 277.3 352 256 349.3C234.7 346.7 213.3 332.3 192 335.8C170.7 339.3 149.3 360.7 128 371.3C106.7 382 85.3 382 64 384.8C42.7 387.7 21.3 393.3 10.7 396.2L0 399Z" fill="#2a3dc1"></path><path d="M0 541L10.7 541C21.3 541 42.7 541 64 541C85.3 541 106.7 541 128 541C149.3 541 170.7 541 192 541C213.3 541 234.7 541 256 541C277.3 541 298.7 541 320 541C341.3 541 362.7 541 384 541C405.3 541 426.7 541 448 541C469.3 541 490.7 541 512 541C533.3 541 554.7 541 576 541C597.3 541 618.7 541 640 541C661.3 541 682.7 541 704 541C725.3 541 746.7 541 768 541C789.3 541 810.7 541 832 541C853.3 541 874.7 541 896 541C917.3 541 938.7 541 949.3 541L960 541L960 485L949.3 488.7C938.7 492.3 917.3 499.7 896 501.5C874.7 503.3 853.3 499.7 832 496.8C810.7 494 789.3 492 768 493.8C746.7 495.7 725.3 501.3 704 499.7C682.7 498 661.3 489 640 486.2C618.7 483.3 597.3 486.7 576 490.2C554.7 493.7 533.3 497.3 512 495.7C490.7 494 469.3 487 448 485.2C426.7 483.3 405.3 486.7 384 486.7C362.7 486.7 341.3 483.3 320 486.2C298.7 489 277.3 498 256 498.8C234.7 499.7 213.3 492.3 192 493.2C170.7 494 149.3 503 128 506.7C106.7 510.3 85.3 508.7 64 506C42.7 503.3 21.3 499.7 10.7 497.8L0 496Z" fill="#003cb4"></path></svg>